<svg width="83" height="519" viewBox="0 0 83 519" fill="none" xmlns="http://www.w3.org/2000/svg">
<path d="M64.5 495C64.5 507.969 53.7646 518.5 40.5 518.5C27.2354 518.5 16.5 507.969 16.5 495C16.5 482.031 27.2354 471.5 40.5 471.5C53.7646 471.5 64.5 482.031 64.5 495Z" stroke="#625C5C"/>
<path d="M64.5 24C64.5 36.969 53.7646 47.5 40.5 47.5C27.2354 47.5 16.5 36.969 16.5 24C16.5 11.031 27.2354 0.5 40.5 0.5C53.7646 0.5 64.5 11.031 64.5 24Z" stroke="#625C5C"/>
<path d="M82.1531 180.653C82.1531 202.621 63.9686 220.459 41.5 220.459C19.0314 220.459 0.846939 202.621 0.846939 180.653C0.846939 158.685 19.0314 140.847 41.5 140.847C63.9686 140.847 82.1531 158.685 82.1531 180.653Z" stroke="#625C5C" stroke-width="1.69388"/>
<path d="M64.5 338C64.5 350.969 53.7646 361.5 40.5 361.5C27.2354 361.5 16.5 350.969 16.5 338C16.5 325.031 27.2354 314.5 40.5 314.5C53.7646 314.5 64.5 325.031 64.5 338Z" stroke="#625C5C"/>
<path d="M41 48V140" stroke="#625C5C" stroke-width="0.96007"/>
<path d="M41 221V314" stroke="#625C5C" stroke-width="0.965273"/>
<path d="M41 362V471" stroke="#625C5C" stroke-width="1.04501"/>
<path d="M43.0996 31V17.6699H40.4824L37.3281 19.9355V22.3574L40.3555 20.209H40.4824V31H43.0996Z" fill="#625C5C"/>
<path d="M39.3457 338.15H40.8203C42.2559 338.15 43.1641 338.99 43.1738 340.152C43.1934 341.344 42.2266 342.193 40.7617 342.193C39.4336 342.184 38.457 341.471 38.3887 340.514H35.9668C36.0352 342.545 37.7246 344.264 40.752 344.264C43.5059 344.264 45.8301 342.799 45.8008 340.27C45.7715 338.15 44.1406 337.203 42.9297 337.086V336.949C43.9062 336.793 45.4297 335.777 45.3906 333.893C45.3613 331.881 43.6133 330.406 40.8301 330.416C37.9199 330.426 36.2891 332.047 36.2207 334.127H38.6719C38.7207 333.258 39.5215 332.457 40.752 332.457C41.9336 332.457 42.8125 333.189 42.8125 334.264C42.8223 335.328 41.9629 336.119 40.752 336.119H39.3457V338.15Z" fill="#E5E5E5"/>
<path d="M40.0645 488.67C38.3164 491.551 36.5 494.441 34.9375 497.371V499.529H41.3926V502H43.8633V499.529H45.4941V497.4H43.8633V488.67H40.0645ZM37.3301 497.4V497.332C38.5312 495.066 39.918 492.781 41.2559 490.662H41.3926V497.4H37.3301Z" fill="#E5E5E5"/>
<path d="M35.4238 174.611C35.4238 174.538 35.4238 174.367 35.4238 174.245C35.4238 171.633 37.2793 169.313 40.4287 169.313C43.2852 169.313 45.4092 171.242 45.4092 173.977C45.4092 176.735 43.4561 178.859 41.6738 180.764L29.4912 193.898V198H52.5137V192.629H38.5244V192.312L46.0928 183.962C48.998 180.788 51.9521 177.956 51.9521 173.366C51.9521 168.068 47.46 164.04 40.5752 164.04C32.8359 164.04 29.1738 169.216 29.1738 174.294V174.611H35.4238Z" fill="#FF9900"/>
</svg>
